<svg xmlns="http://www.w3.org/2000/svg" width="512" height="512" viewBox="0 0 512 512" role="img" aria-label="Grooves icon">
  <defs>
    <linearGradient id="coverGradient" x1="0" y1="0" x2="0" y2="1">
      <stop offset="0%" stop-color="#1E2A44"/>
      <stop offset="100%" stop-color="#0F1526"/>
    </linearGradient>

    <linearGradient id="goldGradient" x1="0" y1="0" x2="1" y2="0">
      <stop offset="0%" stop-color="#F7D78A"/>
      <stop offset="100%" stop-color="#D4A84A"/>
    </linearGradient>

    <radialGradient id="vinylSheen" cx="40%" cy="35%" r="70%">
      <stop offset="0%" stop-color="#3A3F4A"/>
      <stop offset="45%" stop-color="#141820"/>
      <stop offset="100%" stop-color="#090B10"/>
    </radialGradient>

    <linearGradient id="labelGradient" x1="0" y1="0" x2="1" y2="1">
      <stop offset="0%" stop-color="#FFB000"/>
      <stop offset="100%" stop-color="#FF6A00"/>
    </linearGradient>

    <filter id="softShadow" x="-20%" y="-20%" width="140%" height="140%">
      <feDropShadow dx="0" dy="10" stdDeviation="12" flood-color="#000000" flood-opacity="0.35"/>
    </filter>

    <clipPath id="bookClip">
      <path d="M120 120
               C120 100 136 84 156 84
               H302
               C322 84 338 100 338 120
               V392
               C338 412 322 428 302 428
               H156
               C136 428 120 412 120 392
               Z"/>
    </clipPath>
  </defs>

  <g filter="url(#softShadow)">
    <circle cx="346" cy="276" r="150" fill="url(#vinylSheen)"/>
    <circle cx="346" cy="276" r="138" fill="none" stroke="#1A1F2A" stroke-width="8" opacity="0.9"/>

    <g opacity="0.55">
      <circle cx="346" cy="276" r="110" fill="none" stroke="#2A3140" stroke-width="6"/>
      <circle cx="346" cy="276" r="92" fill="none" stroke="#222A38" stroke-width="6"/>
      <circle cx="346" cy="276" r="74" fill="none" stroke="#1E2532" stroke-width="6"/>
      <circle cx="346" cy="276" r="56" fill="none" stroke="#1A2030" stroke-width="6"/>
    </g>

    <circle cx="346" cy="276" r="48" fill="url(#labelGradient)"/>
    <circle cx="346" cy="276" r="14" fill="#F6F0E6"/>
    <circle cx="346" cy="276" r="6" fill="#1B1F2A"/>
  </g>

  <g filter="url(#softShadow)">
    <path d="M120 120
             C120 100 136 84 156 84
             H302
             C322 84 338 100 338 120
             V392
             C338 412 322 428 302 428
             H156
             C136 428 120 412 120 392
             Z"
          fill="url(#coverGradient)"/>

    <path d="M136 120
             C136 108 146 98 158 98
             H174
             V414
             H158
             C146 414 136 404 136 392
             Z"
          fill="#0B1020" opacity="0.85"/>

    <path d="M140 130 H176" stroke="url(#goldGradient)" stroke-width="6" stroke-linecap="round" opacity="0.9"/>
    <path d="M140 164 H176" stroke="url(#goldGradient)" stroke-width="6" stroke-linecap="round" opacity="0.9"/>
    <path d="M140 198 H176" stroke="url(#goldGradient)" stroke-width="6" stroke-linecap="round" opacity="0.9"/>

    <path d="M156 112 H314" stroke="url(#goldGradient)" stroke-width="6" stroke-linecap="round" opacity="0.9"/>
    <path d="M156 400 H314" stroke="url(#goldGradient)" stroke-width="6" stroke-linecap="round" opacity="0.9"/>

    <g clip-path="url(#bookClip)" opacity="0.28">
      <path d="M160 140 L340 300" stroke="#FFFFFF" stroke-width="42" stroke-linecap="round"/>
    </g>

    <path d="M338 170
             C312 190 300 218 300 246
             V306
             C300 334 312 362 338 382
             Z"
          fill="url(#vinylSheen)"/>

    <path d="M338 170
             C312 190 300 218 300 246
             V306
             C300 334 312 362 338 382"
          fill="none" stroke="#141A26" stroke-width="8" opacity="0.95"/>

    <circle cx="338" cy="276" r="34" fill="url(#labelGradient)"/>
    <circle cx="338" cy="276" r="11" fill="#F6F0E6"/>
    <circle cx="338" cy="276" r="5" fill="#1B1F2A"/>

    <g opacity="0.95">
      <path d="M188 232 H288" stroke="url(#goldGradient)" stroke-width="8" stroke-linecap="round"/>
      <path d="M188 268 H288" stroke="url(#goldGradient)" stroke-width="8" stroke-linecap="round"/>
      <path d="M188 304 H288" stroke="url(#goldGradient)" stroke-width="8" stroke-linecap="round"/>
    </g>

    <path d="M214 420
             C214 408 224 398 236 398
             H250
             C262 398 272 408 272 420
             V458
             L243 442
             L214 458
             Z"
          fill="#C73A3A"/>

    <path d="M154 120
             C154 106 165 95 179 95
             H184"
          fill="none" stroke="#0A0F1D" stroke-width="10" stroke-linecap="round" opacity="0.85"/>
  </g>
</svg>
